<svg width="169" height="23" viewBox="0 0 169 23" fill="none" xmlns="http://www.w3.org/2000/svg">
<path d="M8.62243 18.4036C6.36525 18.4036 5.58276 18.0123 5.58276 17.0192C5.58276 15.7551 6.09439 15.2134 8.53215 15.2134H11.0903C14.2804 15.2134 14.6115 15.6348 14.6115 16.7784C14.6115 17.8017 14.2503 18.4036 10.2777 18.4036H8.62243ZM0 17.6512C0 21.2627 2.25718 22.0452 5.77839 22.0151H9.72093C12.6101 22.0151 13.212 21.684 14.8071 20.0287V21.7743H20.2845V11.6922C20.2845 8.08073 18.1778 6.18469 14.2052 6.18469H7.4788C2.60328 6.18469 0.571819 6.87689 0.571819 11.0301H6.16963C6.22982 9.94666 6.71135 9.79618 8.39672 9.79618H11.7975C14.0547 9.79618 14.5062 10.3379 14.5062 11.8427V13.197C13.3926 12.0534 11.6471 11.9631 8.487 11.9631C2.88919 11.9631 0 12.2038 0 16.3872V17.6512Z" fill="#F6F6F6"/>
<path d="M22.0452 13.2572C22.0452 7.44871 24.9344 6.19974 29.1328 6.19974H35.6184C39.892 6.19974 42.4953 7.76472 42.4953 11.2859V12.6703H36.8975C36.8975 11.1053 36.0849 10.5335 33.5568 10.5335H31.3297C28.9221 10.5335 27.7784 11.1956 27.7784 12.881V14.9275C27.7784 16.9138 29.0425 17.5157 30.8482 17.5157H33.7976C35.4228 17.5157 36.8975 17.1546 36.8975 15.7401V15.3789H42.4953V16.7333C42.4953 20.8564 39.0644 22.0301 35.7689 22.0301H29.8701C26.0479 22.0301 22.0302 21.3078 22.0302 14.762V13.2572H22.0452Z" fill="#F6F6F6"/>
<path d="M46.844 10.5787H43.9548V6.42546H46.844V2.81396H52.6224V6.42546H61.5759V10.5787H52.6224V16.4774C52.6224 17.6211 53.4651 17.8618 54.8495 17.8618C56.7154 17.8618 57.2271 17.4405 57.2271 16.026V15.0027H62.2831V16.8687C62.2831 19.788 60.357 22.0151 55.7674 22.0151H53.4801C49.9288 22.0151 46.8741 20.9015 46.8741 16.658V10.5787H46.844Z" fill="#F6F6F6"/>
<path d="M77.933 13.3776C77.933 11.1806 79.2271 10.5185 81.8756 10.5185H83.26C86.9918 10.5185 87.7141 11 87.7141 13.0465V15.1532C87.7141 17.1997 86.9918 17.6813 83.26 17.6813H81.8756C79.2271 17.6813 77.933 17.0192 77.933 14.8222V13.3776ZM72.1697 15.9357C72.1697 20.9918 75.5705 22 78.5199 22H87.1423C90.0917 22 93.4925 20.9768 93.4925 15.9357V12.264C93.4925 7.20795 90.0917 6.18469 87.1423 6.18469H78.5199C75.5705 6.18469 72.1697 7.20795 72.1697 12.264V15.9357Z" fill="#F6F6F6"/>
<path d="M95.5691 6.42546H101.348V8.89331H101.408C102.431 6.75651 104.447 6.18469 107.547 6.18469C111.129 6.18469 116.109 6.33517 116.109 12.9412V21.7442H110.331V12.9562C110.331 11.4514 109.127 10.6991 106.599 10.6991H105.275C102.807 10.6991 101.332 11.8427 101.332 14.0397V21.7592H95.5541V6.42546H95.5691Z" fill="#F6F6F6"/>
<path d="M126.538 18.4036C124.28 18.4036 123.498 18.0123 123.498 17.0192C123.498 15.7551 124.01 15.2134 126.447 15.2134H129.005C132.196 15.2134 132.527 15.6348 132.527 16.7784C132.527 17.8017 132.165 18.4036 128.193 18.4036H126.538ZM117.915 17.6512C117.915 21.2627 120.172 22.0452 123.694 22.0151H127.636C130.525 22.0151 131.127 21.684 132.722 20.0287V21.7743H138.2V11.6922C138.2 8.08073 136.093 6.18469 132.12 6.18469H125.424C120.549 6.18469 118.517 6.87689 118.517 11.0301H124.115C124.175 9.94666 124.657 9.79618 126.342 9.79618H129.743C132 9.79618 132.451 10.3379 132.451 11.8427V13.197C131.338 12.0534 129.592 11.9631 126.432 11.9631C120.834 11.9631 117.96 12.2038 117.96 16.3872V17.6512H117.915Z" fill="#F6F6F6"/>
<path d="M146.01 21.7592H140.246V6.42544H146.025V21.7592H146.01ZM146.01 4.51436H140.246V0H146.025V4.51436H146.01Z" fill="#F6F6F6"/>
<path d="M153.428 13.197C153.428 11.4815 153.699 10.5185 156.468 10.5185H159.869C162.156 10.5185 163.36 11.0301 163.36 13.3475V14.8523C163.36 17.1696 162.156 17.6813 159.869 17.6813H156.468C153.699 17.6813 153.428 16.7182 153.428 15.0027V13.197ZM147.845 15.4843C147.845 19.3967 148.748 22 156.047 22H157.732C161.223 22 162.668 20.8263 163.3 18.9302H163.36V21.7592H168.777V0H162.999V9.25445H162.938C162.577 6.84679 160.14 6.18468 157.762 6.18468H156.047C148.748 6.18468 147.845 8.80301 147.845 12.7155V15.4843Z" fill="#F6F6F6"/>
<path d="M70.0465 6.38031H64.3885V15.3188H70.0465V6.38031Z" fill="#F6F6F6"/>
<path d="M70.0328 17.2599H64.3748V21.6539H70.0328V17.2599Z" fill="#F6F6F6"/>
</svg>
